<mxfile host="app.diagrams.net" modified="2023-09-15T14:13:03.970Z" agent="Mozilla/5.0 (Windows NT 10.0; Win64; x64) AppleWebKit/537.36 (KHTML, like Gecko) Chrome/116.0.0.0 Safari/537.36" version="21.6.9" etag="xx_6tVHY4BsvN8LdbCf5" type="github">
  <diagram name="PÃ¡gina-1" id="oMPi2fj6adcdy4pe2EVm">
    <mxGraphModel>
      <root>
        <mxCell id="0" />
        <mxCell id="1" parent="0" />
      </root>
    </mxGraphModel>
  </diagram>
</mxfile>
